<?xml version="1.0" standalone="no"?>
<!DOCTYPE svg PUBLIC "-//W3C//DTD SVG 20010904//EN"
 "http://www.w3.org/TR/2001/REC-SVG-20010904/DTD/svg10.dtd">
<svg version="1.0" xmlns="http://www.w3.org/2000/svg"
 width="278.000000pt" height="88.000000pt" viewBox="0 0 278.000000 88.000000"
 preserveAspectRatio="xMidYMid meet">
<metadata>
Created by potrace 1.10, written by Peter Selinger 2001-2011
</metadata>
<g transform="translate(0.000000,88.000000) scale(0.100000,-0.100000)"
fill="#000000" stroke="none">
<path d="M1985 551 c-18 -52 -17 -51 -6 -51 5 0 11 9 14 20 5 20 61 50 94 50
17 0 18 -12 15 -157 -2 -109 -7 -160 -15 -165 -7 -4 12 -8 41 -8 49 0 52 1 42
19 -5 11 -10 84 -10 167 l0 147 38 -6 c24 -4 47 -17 65 -38 16 -17 29 -29 31
-27 1 1 -5 23 -13 48 l-16 45 -132 0 -133 0 -15 -44z"/>
<path d="M168 573 c11 -10 44 -56 72 -102 50 -81 52 -86 48 -144 -3 -43 -10
-63 -23 -73 -17 -12 -10 -14 51 -13 38 0 62 3 54 6 -24 10 -30 25 -30 87 0 52
5 66 51 142 27 46 60 90 72 99 20 14 19 15 -26 15 -33 0 -46 -4 -41 -11 6 -11
-54 -149 -66 -149 -9 0 -70 116 -70 133 0 9 8 18 18 20 9 3 -16 5 -57 6 -71 1
-73 0 -53 -16z"/>
<path d="M502 583 c23 -6 25 -21 20 -161 -4 -110 -3 -124 14 -143 41 -47 124
-62 188 -35 59 25 66 45 66 193 0 115 2 133 18 142 13 8 6 10 -32 11 -40 0
-46 -2 -37 -14 13 -16 27 -221 17 -260 -11 -46 -85 -70 -140 -45 -36 17 -44
52 -39 160 5 122 9 138 36 149 16 6 1 9 -53 8 -41 0 -67 -2 -58 -5z"/>
<path d="M873 572 c14 -16 17 -43 17 -165 0 -128 -2 -147 -17 -156 -14 -8 -5
-10 36 -11 46 0 52 2 39 12 -13 11 -17 39 -20 156 -2 78 0 142 4 142 5 0 8 -4
8 -9 0 -5 21 -48 47 -97 34 -65 49 -84 55 -73 5 8 31 52 58 99 l50 85 0 -148
c0 -144 -1 -148 -22 -157 -17 -6 -5 -9 47 -9 52 0 66 2 53 10 -16 9 -18 28
-18 159 0 142 1 150 22 164 21 15 18 16 -51 16 -58 0 -71 -3 -63 -12 7 -9 0
-30 -26 -75 -21 -35 -40 -63 -43 -63 -9 0 -64 122 -61 137 2 10 -13 13 -64 13
-64 0 -66 -1 -51 -18z"/>
<path d="M1298 580 c21 -9 22 -13 22 -165 0 -152 -1 -156 -22 -165 -17 -6 -5
-9 47 -9 52 0 66 2 53 10 -16 9 -18 28 -18 164 0 136 2 155 18 164 13 8 -1 10
-53 10 -52 0 -64 -3 -47 -9z"/>
<path d="M1470 570 c18 -18 20 -33 20 -157 0 -140 -3 -155 -30 -166 -8 -3 11
-6 44 -6 57 -1 58 -1 37 16 -21 17 -22 25 -19 154 l3 136 98 -80 97 -81 0 -56
c0 -58 -6 -73 -30 -83 -8 -3 11 -6 43 -6 l57 -1 -20 20 c-18 18 -20 33 -20
155 0 122 2 137 20 155 20 20 20 20 -37 20 -55 0 -56 -1 -35 -16 18 -12 22
-25 22 -65 l0 -51 -67 53 c-38 29 -70 55 -73 56 -2 2 2 8 10 13 10 7 -11 10
-62 10 -78 0 -78 0 -58 -20z"/>
<path d="M1843 579 c15 -9 17 -28 17 -164 0 -136 -2 -155 -17 -164 -14 -8 -1
-10 52 -11 66 0 68 1 47 16 -21 14 -22 22 -22 157 0 144 3 159 30 170 8 3 -16
6 -55 6 -52 0 -66 -2 -52 -10z"/>
<path d="M2318 573 c11 -10 44 -56 72 -102 50 -81 52 -86 48 -144 -3 -43 -10
-63 -23 -73 -17 -12 -10 -14 51 -13 38 0 62 3 54 6 -25 10 -30 25 -30 88 0 54
5 68 46 135 25 41 57 85 70 98 l25 22 -46 0 c-32 0 -44 -3 -39 -11 7 -11 -55
-148 -66 -149 -9 0 -70 116 -70 133 0 9 8 18 18 20 9 3 -16 5 -57 6 -71 1 -73
0 -53 -16z"/>
</g>
</svg>
